# xmcd CD database file
#
# Track frame offsets:
#	150
#	21675
#	38062
#	56812
#	71982
#	86984
#	120176
#	144549
#	166166
#	190506
#	205714
#	223526
#	242421
#	261646
#	280612
#	298025
#
# Disc length: 4138 seconds
#
# Revision: 0
# Processed by: cddbd v1.4PL0 Copyright (c) Steve Scherf et al.
# Submitted via: CDex 1.50beta9
#
DISCID=f4102810
DTITLE=蔡琴 - 遇见
DYEAR=2001
DGENRE=Blues
TTITLE0=缺口
TTITLE1=把月光射下来
TTITLE2=明天你是否依然爱我
TTITLE3=大约在冬季
TTITLE4=大女人
TTITLE5=不了情&新不了情
TTITLE6=爱情就是这样
TTITLE7=张三的歌
TTITLE8=把悲伤留给自己
TTITLE9=驿动的心
TTITLE10=常喜
TTITLE11=老曲盘
TTITLE12=恰似你的温柔
TTITLE13=机遇
TTITLE14=我的思念
TTITLE15=被遗忘的时光
EXTD=YEAR: 2001
EXTT0=
EXTT1=
EXTT2=
EXTT3=
EXTT4=
EXTT5=
EXTT6=
EXTT7=
EXTT8=
EXTT9=
EXTT10=
EXTT11=
EXTT12=
EXTT13=
EXTT14=
EXTT15=
PLAYORDER=
